<?xml version="1.0" encoding="UTF-8"?>
<svg xmlns="http://www.w3.org/2000/svg" viewBox="-12 -14.54 64 36.489999999999995" preserveAspectRatio="xMidYMid meet">
<rect x="-12" y="-14.54" width="64" height="36.489999999999995" fill="#fefdfb" />
<line x1="-10" y1="0" x2="6" y2="0" stroke="#1c1917" stroke-width="0.22" />
<line x1="6" y1="0" x2="6" y2="-0.5" stroke="#1c1917" stroke-width="0.22" />
<line x1="6" y1="-0.5" x2="14" y2="-0.5" stroke="#1c1917" stroke-width="0.22" />
<line x1="-10" y1="0" x2="-10.8" y2="0.8" stroke="#1c1917" stroke-width="0.05" />
<line x1="-8" y1="0" x2="-8.8" y2="0.8" stroke="#1c1917" stroke-width="0.05" />
<line x1="-6" y1="0" x2="-6.8" y2="0.8" stroke="#1c1917" stroke-width="0.05" />
<line x1="-4" y1="0" x2="-4.8" y2="0.8" stroke="#1c1917" stroke-width="0.05" />
<line x1="-2" y1="0" x2="-2.8" y2="0.8" stroke="#1c1917" stroke-width="0.05" />
<line x1="0" y1="0" x2="-0.8" y2="0.8" stroke="#1c1917" stroke-width="0.05" />
<line x1="2" y1="0" x2="1.2" y2="0.8" stroke="#1c1917" stroke-width="0.05" />
<line x1="4" y1="0" x2="3.2" y2="0.8" stroke="#1c1917" stroke-width="0.05" />
<text x="-10" y="1.6" font-size="1.0" font-family="sans-serif" fill="#57534e">TRAVEL LANE →</text>
<text x="7" y="-1.1" font-size="1.0" font-family="sans-serif" fill="#57534e">SIDEWALK</text>
<rect x="0" y="-0.5" width="5" height="0.5" fill="#e7e5e4" stroke="#1c1917" stroke-width="0.08" />
<rect x="5" y="-0.5" width="1" height="0.42" fill="none" stroke="#78716c" stroke-width="0.06" stroke-dasharray="0.3,0.25" />
<g id="enclosure">
<rect x="0" y="-1.6250000000000002" width="6" height="0.2916666666666667" fill="#fff" stroke="#1c1917" stroke-width="0.07" />
<rect x="0" y="-2.25" width="6" height="0.2916666666666667" fill="#fff" stroke="#1c1917" stroke-width="0.07" />
<rect x="0" y="-2.875" width="6" height="0.2916666666666667" fill="#fff" stroke="#1c1917" stroke-width="0.07" />
<rect x="0" y="-3.5" width="6" height="0.2916666666666667" fill="#fff" stroke="#1c1917" stroke-width="0.07" />
<rect x="0" y="-3.5" width="6" height="0.4583333333333333" fill="#fff" stroke="#1c1917" stroke-width="0.09" />
</g>
<g id="posts">
<rect x="0" y="-7.416666666666667" width="0.4583333333333333" height="6.916666666666667" fill="#f5f5f4" stroke="#1c1917" stroke-width="0.09" />
<rect x="5.541666666666667" y="-8.416666666666666" width="0.4583333333333333" height="7.916666666666666" fill="#f5f5f4" stroke="#1c1917" stroke-width="0.09" />
</g>
<g id="roof">
<rect x="-0.2" y="-8.25" width="0.8583333333333334" height="0.8333333333333334" fill="#fff" stroke="#1c1917" stroke-width="0.09" />
<rect x="5.341666666666667" y="-9.25" width="0.8583333333333334" height="0.8333333333333334" fill="#fff" stroke="#1c1917" stroke-width="0.09" />
<polygon points="-0.7,-8.25 6.7,-9.25 6.7,-9.4 -0.7,-8.4" fill="#f5f5f4" stroke="#1c1917" stroke-width="0.1" />
<rect x="-0.7" y="-8.4" width="0.25" height="0.28999999999999915" fill="#fff" stroke="#1c1917" stroke-width="0.07" />
<rect x="6.45" y="-9.4" width="0.25" height="0.28999999999999915" fill="#fff" stroke="#1c1917" stroke-width="0.07" />
<line x1="5" y1="-10.299999999999999" x2="1" y2="-9.6" stroke="#1c1917" stroke-width="0.07" />
<polygon points="1,-9.6 1.7,-9.899999999999999 1.55,-9.399999999999999" fill="#1c1917" />
<text x="3" y="-10.649999999999999" font-size="0.9" font-family="sans-serif" text-anchor="middle" fill="#1c1917">2:12 (10%) SLOPE TO CURB</text>
</g>
<g id="jersey-barrier">
<path d="M -1 0 L -1 -0.25 L -0.3 -1.1 L -0.25 -3 L 0.25 -3 L 0.3 -1.1 L 1 -0.25 L 1 0 Z" fill="#d6d3d1" stroke="#1c1917" stroke-width="0.1" />
<circle cx="0" cy="-1.5" r="0.18" fill="#facc15" stroke="#1c1917" stroke-width="0.04" />
</g>
<g id="labels">
<line x1="15.7" y1="-9.889999999999999" x2="3.5999999999999996" y2="-8.85" stroke="#57534e" stroke-width="0.05" />
<circle cx="3.5999999999999996" cy="-8.85" r="0.12" fill="#57534e" />
<text x="16" y="-9.54" font-size="1.0" font-family="sans-serif" fill="#1c1917">PVC CORRUGATED ROOFING</text>
<line x1="15.7" y1="-8.19" x2="5.770833333333333" y2="-3.2" stroke="#57534e" stroke-width="0.05" />
<circle cx="5.770833333333333" cy="-3.2" r="0.12" fill="#57534e" />
<text x="16" y="-7.839999999999999" font-size="1.0" font-family="sans-serif" fill="#1c1917">6x6 PT. WD. POST TYP.</text>
<line x1="15.7" y1="-6.489999999999998" x2="2.4000000000000004" y2="-3.2708333333333335" stroke="#57534e" stroke-width="0.05" />
<circle cx="2.4000000000000004" cy="-3.2708333333333335" r="0.12" fill="#57534e" />
<text x="16" y="-6.139999999999999" font-size="1.0" font-family="sans-serif" fill="#1c1917">2x6 PT. WD. RAILING</text>
<line x1="15.7" y1="-4.789999999999999" x2="2.4000000000000004" y2="-0.25" stroke="#57534e" stroke-width="0.05" />
<circle cx="2.4000000000000004" cy="-0.25" r="0.12" fill="#57534e" />
<text x="16" y="-4.4399999999999995" font-size="1.0" font-family="sans-serif" fill="#1c1917">COMPOSITE DECKING ON PT 2x4 SLEEPERS / ADJUSTABLE PEDESTALS</text>
<line x1="15.7" y1="-3.0899999999999994" x2="5.5" y2="-0.2" stroke="#57534e" stroke-width="0.05" />
<circle cx="5.5" cy="-0.2" r="0.12" fill="#57534e" />
<text x="16" y="-2.7399999999999993" font-size="1.0" font-family="sans-serif" fill="#1c1917">1&apos;-0&quot; CLEAR STORMWATER CHANNEL AT CURB (§4.6)</text>
<line x1="15.7" y1="-1.3899999999999992" x2="0.3" y2="-2.6" stroke="#57534e" stroke-width="0.05" />
<circle cx="0.3" cy="-2.6" r="0.12" fill="#57534e" />
<text x="16" y="-1.0399999999999991" font-size="1.0" font-family="sans-serif" fill="#1c1917">CONCRETE JERSEY BARRIER — ANGLED 45-60° INWARD (§4.2)</text>
</g>
<g id="dimensions">
<line x1="0" y1="0" x2="0" y2="2.9" stroke="#1c1917" stroke-width="0.06" />
<line x1="6" y1="0" x2="6" y2="2.9" stroke="#1c1917" stroke-width="0.06" />
<line x1="0" y1="2.9" x2="6" y2="2.9" stroke="#1c1917" stroke-width="0.08" />
<line x1="-0.4" y1="3.3" x2="0.4" y2="2.5" stroke="#1c1917" stroke-width="0.12" />
<line x1="5.6" y1="3.3" x2="6.4" y2="2.5" stroke="#1c1917" stroke-width="0.12" />
<text x="3" y="2.5" font-size="1.1" font-family="sans-serif" text-anchor="middle" fill="#1c1917">6&apos;-0&quot;</text>
<line x1="-2" y1="0" x2="-2" y2="4.7" stroke="#1c1917" stroke-width="0.06" />
<line x1="0" y1="0" x2="0" y2="4.7" stroke="#1c1917" stroke-width="0.06" />
<line x1="-2" y1="4.7" x2="0" y2="4.7" stroke="#1c1917" stroke-width="0.08" />
<line x1="-2.4" y1="5.1000000000000005" x2="-1.6" y2="4.3" stroke="#1c1917" stroke-width="0.12" />
<line x1="-0.4" y1="5.1000000000000005" x2="0.4" y2="4.3" stroke="#1c1917" stroke-width="0.12" />
<text x="-1" y="4.3" font-size="1.1" font-family="sans-serif" text-anchor="middle" fill="#1c1917">2&apos;-0&quot; BUFFER</text>
<line x1="0" y1="-0.5" x2="-3" y2="-0.5" stroke="#1c1917" stroke-width="0.06" />
<line x1="0" y1="0" x2="-3" y2="0" stroke="#1c1917" stroke-width="0.06" />
<line x1="-3" y1="-0.5" x2="-3" y2="0" stroke="#1c1917" stroke-width="0.08" />
<line x1="-3.4" y1="-0.09999999999999998" x2="-2.6" y2="-0.9" stroke="#1c1917" stroke-width="0.12" />
<line x1="-3.4" y1="0.4" x2="-2.6" y2="-0.4" stroke="#1c1917" stroke-width="0.12" />
<text x="-3.4" y="-0.25" font-size="1.1" font-family="sans-serif" text-anchor="middle" fill="#1c1917" transform="rotate(-90 -3.4 -0.25)">0&apos;-6&quot;</text>
<line x1="0" y1="-3.5" x2="-5.5" y2="-3.5" stroke="#1c1917" stroke-width="0.06" />
<line x1="0" y1="0" x2="-5.5" y2="0" stroke="#1c1917" stroke-width="0.06" />
<line x1="-5.5" y1="-3.5" x2="-5.5" y2="0" stroke="#1c1917" stroke-width="0.08" />
<line x1="-5.9" y1="-3.1" x2="-5.1" y2="-3.9" stroke="#1c1917" stroke-width="0.12" />
<line x1="-5.9" y1="0.4" x2="-5.1" y2="-0.4" stroke="#1c1917" stroke-width="0.12" />
<text x="-5.9" y="-1.75" font-size="1.1" font-family="sans-serif" text-anchor="middle" fill="#1c1917" transform="rotate(-90 -5.9 -1.75)">3&apos;-6&quot;</text>
<line x1="0" y1="-8.25" x2="-8" y2="-8.25" stroke="#1c1917" stroke-width="0.06" />
<line x1="0" y1="0" x2="-8" y2="0" stroke="#1c1917" stroke-width="0.06" />
<line x1="-8" y1="-8.25" x2="-8" y2="0" stroke="#1c1917" stroke-width="0.08" />
<line x1="-8.4" y1="-7.85" x2="-7.6" y2="-8.65" stroke="#1c1917" stroke-width="0.12" />
<line x1="-8.4" y1="0.4" x2="-7.6" y2="-0.4" stroke="#1c1917" stroke-width="0.12" />
<text x="-8.4" y="-4.125" font-size="1.1" font-family="sans-serif" text-anchor="middle" fill="#1c1917" transform="rotate(-90 -8.4 -4.125)">8&apos;-3&quot;</text>
<line x1="6" y1="-9.25" x2="13" y2="-9.25" stroke="#1c1917" stroke-width="0.06" />
<line x1="6" y1="-0.5" x2="13" y2="-0.5" stroke="#1c1917" stroke-width="0.06" />
<line x1="13" y1="-9.25" x2="13" y2="-0.5" stroke="#1c1917" stroke-width="0.08" />
<line x1="12.6" y1="-8.85" x2="13.4" y2="-9.65" stroke="#1c1917" stroke-width="0.12" />
<line x1="12.6" y1="-0.09999999999999998" x2="13.4" y2="-0.9" stroke="#1c1917" stroke-width="0.12" />
<text x="12.6" y="-4.875" font-size="1.1" font-family="sans-serif" text-anchor="middle" fill="#1c1917" transform="rotate(-90 12.6 -4.875)">9&apos;-3&quot;</text>
</g>
<text x="-10" y="7.5" font-size="1.15" font-family="sans-serif" font-weight="700" fill="#1c1917">NOTES</text>
<text x="-10" y="9.1" font-size="0.85" font-family="sans-serif" fill="#44403c">1. Vehicular approach assumed from the</text>
<text x="-10" y="10.25" font-size="0.85" font-family="sans-serif" fill="#44403c">high-station end (derived from side-of-street +</text>
<text x="-10" y="11.4" font-size="0.85" font-family="sans-serif" fill="#44403c">route direction). SITE-WALK CONFIRM: verify</text>
<text x="-10" y="12.55" font-size="0.85" font-family="sans-serif" fill="#44403c">traffic direction in the adjacent lane; one-way</text>
<text x="-10" y="13.700000000000001" font-size="0.85" font-family="sans-serif" fill="#44403c">streets can flip this.</text>
<text x="-10" y="15.100000000000001" font-size="0.85" font-family="sans-serif" fill="#44403c">2. Fire Department Connection locations are</text>
<text x="-10" y="16.25" font-size="0.85" font-family="sans-serif" fill="#44403c">building-mounted and not in any DC dataset —</text>
<text x="-10" y="17.4" font-size="0.85" font-family="sans-serif" fill="#44403c">SITE-WALK: confirm FDC position; enclosure needs a</text>
<text x="-10" y="18.549999999999997" font-size="0.85" font-family="sans-serif" fill="#44403c">3 ft gap at it.</text>
<g id="architect-seal">
<rect x="15.2" y="8.95" width="9" height="12" fill="white" stroke="#1c1917" stroke-width="0.12" />
<text x="15.899999999999999" y="10.45" font-size="0.8" font-family="sans-serif" fill="#78716c">ARCHITECT:</text>
<line x1="15.899999999999999" y1="12.049999999999999" x2="23.5" y2="12.049999999999999" stroke="#a8a29e" stroke-width="0.06" />
<circle cx="19.7" cy="16.549999999999997" r="3" fill="none" stroke="#d6d3d1" stroke-width="0.08" stroke-dasharray="0.5,0.4" />
<text x="19.7" y="16.85" font-size="0.7" font-family="sans-serif" text-anchor="middle" fill="#a8a29e">SEAL</text>
</g>
<g id="title-block">
<rect x="25" y="8.95" width="26" height="12" fill="white" stroke="#1c1917" stroke-width="0.12" />
<text x="26" y="10.75" font-size="1.3" font-family="sans-serif" font-weight="700" fill="#1c1917">MARTHA DEAR</text>
<text x="26" y="12.25" font-size="0.95" font-family="sans-serif" fill="#44403c">3110 MOUNT PLEASANT STREET NW</text>
<text x="26" y="14.149999999999999" font-size="1.05" font-family="sans-serif" font-weight="700" fill="#1c1917">A2.03 — END ELEVATION — HIGH STATION (APPROACH)</text>
<text x="26" y="15.549999999999999" font-size="0.85" font-family="sans-serif" fill="#44403c">SEATING CAPACITY: 6 (96 SF / 15)</text>
<text x="26" y="16.85" font-size="0.85" font-family="sans-serif" fill="#44403c">GENERATED 2026-06-11 — SCALE: 1 UNIT = 1 FT</text>
<text x="26" y="18.65" font-size="0.8" font-family="sans-serif" font-style="italic" fill="#a8a29e">AUTOMATED DRAFT — generated by streatery pre-screener v3.</text>
<text x="26" y="19.75" font-size="0.8" font-family="sans-serif" font-style="italic" fill="#a8a29e">Architect review, refinement, and seal required before submission.</text>
</g>
<g id="scale-bar" transform="translate(-10, -12.54)">
<rect x="0" y="0" width="5" height="0.5" fill="#1c1917" />
<rect x="5" y="0" width="5" height="0.5" fill="white" stroke="#1c1917" stroke-width="0.06" />
<text x="0" y="-0.4" font-size="0.8" font-family="sans-serif" fill="#1c1917">0</text>
<text x="5" y="-0.4" font-size="0.8" font-family="sans-serif" text-anchor="middle" fill="#1c1917">5</text>
<text x="10" y="-0.4" font-size="0.8" font-family="sans-serif" text-anchor="middle" fill="#1c1917">10 FT</text>
</g>
<text x="20" y="-5.5" font-size="3.2" font-family="sans-serif" font-weight="900" fill="#1c1917" fill-opacity="0.06" text-anchor="middle" dominant-baseline="middle" transform="rotate(-20 20 -5.5)">AUTOMATED DRAFT — ARCHITECT REVIEW REQUIRED</text>
</svg>
