<?xml version="1.0" encoding="UTF-8"?>
<svg xmlns="http://www.w3.org/2000/svg" viewBox="-10 -14.54 73.99229056738866 35.54" preserveAspectRatio="xMidYMid meet">
<rect x="-10" y="-14.54" width="73.99229056738866" height="35.54" fill="#fefdfb" />
<line x1="-8" y1="-0.5" x2="27.992290567388665" y2="-0.5" stroke="#1c1917" stroke-width="0.22" />
<line x1="-8" y1="-0.5" x2="-8.8" y2="0.30000000000000004" stroke="#1c1917" stroke-width="0.05" />
<line x1="-6" y1="-0.5" x2="-6.8" y2="0.30000000000000004" stroke="#1c1917" stroke-width="0.05" />
<line x1="-4" y1="-0.5" x2="-4.8" y2="0.30000000000000004" stroke="#1c1917" stroke-width="0.05" />
<line x1="-2" y1="-0.5" x2="-2.8" y2="0.30000000000000004" stroke="#1c1917" stroke-width="0.05" />
<line x1="0" y1="-0.5" x2="-0.8" y2="0.30000000000000004" stroke="#1c1917" stroke-width="0.05" />
<line x1="2" y1="-0.5" x2="1.2" y2="0.30000000000000004" stroke="#1c1917" stroke-width="0.05" />
<line x1="4" y1="-0.5" x2="3.2" y2="0.30000000000000004" stroke="#1c1917" stroke-width="0.05" />
<line x1="6" y1="-0.5" x2="5.2" y2="0.30000000000000004" stroke="#1c1917" stroke-width="0.05" />
<line x1="8" y1="-0.5" x2="7.2" y2="0.30000000000000004" stroke="#1c1917" stroke-width="0.05" />
<line x1="10" y1="-0.5" x2="9.2" y2="0.30000000000000004" stroke="#1c1917" stroke-width="0.05" />
<line x1="12" y1="-0.5" x2="11.2" y2="0.30000000000000004" stroke="#1c1917" stroke-width="0.05" />
<line x1="14" y1="-0.5" x2="13.2" y2="0.30000000000000004" stroke="#1c1917" stroke-width="0.05" />
<line x1="16" y1="-0.5" x2="15.2" y2="0.30000000000000004" stroke="#1c1917" stroke-width="0.05" />
<line x1="18" y1="-0.5" x2="17.2" y2="0.30000000000000004" stroke="#1c1917" stroke-width="0.05" />
<line x1="20" y1="-0.5" x2="19.2" y2="0.30000000000000004" stroke="#1c1917" stroke-width="0.05" />
<line x1="22" y1="-0.5" x2="21.2" y2="0.30000000000000004" stroke="#1c1917" stroke-width="0.05" />
<line x1="24" y1="-0.5" x2="23.2" y2="0.30000000000000004" stroke="#1c1917" stroke-width="0.05" />
<line x1="26" y1="-0.5" x2="25.2" y2="0.30000000000000004" stroke="#1c1917" stroke-width="0.05" />
<text x="28.492290567388665" y="-0.09999999999999998" font-size="1.0" font-family="sans-serif" fill="#57534e">SIDEWALK</text>
<rect x="0" y="-0.5" width="21.992290567388665" height="0.12" fill="#e7e5e4" stroke="#1c1917" stroke-width="0.06" />
<g id="jersey-barrier-beyond">
<rect x="0" y="-3" width="6" height="2.5" fill="none" stroke="#78716c" stroke-width="0.07" stroke-dasharray="0.4,0.3" />
<text x="3" y="-3.5" font-size="0.85" font-family="sans-serif" text-anchor="middle" fill="#78716c">JERSEY BARRIER BEYOND</text>
</g>
<g id="enclosure">
<rect x="13.496145283694332" y="-1.6250000000000002" width="8.496145283694332" height="0.2916666666666667" fill="#fff" stroke="#1c1917" stroke-width="0.07" />
<rect x="13.496145283694332" y="-2.25" width="8.496145283694332" height="0.2916666666666667" fill="#fff" stroke="#1c1917" stroke-width="0.07" />
<rect x="13.496145283694332" y="-2.875" width="8.496145283694332" height="0.2916666666666667" fill="#fff" stroke="#1c1917" stroke-width="0.07" />
<rect x="13.496145283694332" y="-3.5" width="8.496145283694332" height="0.2916666666666667" fill="#fff" stroke="#1c1917" stroke-width="0.07" />
<rect x="13.496145283694332" y="-3.5" width="8.496145283694332" height="0.4583333333333333" fill="#fff" stroke="#1c1917" stroke-width="0.09" />
<rect x="0" y="-1.6250000000000002" width="8.496145283694332" height="0.2916666666666667" fill="#fff" stroke="#1c1917" stroke-width="0.07" />
<rect x="0" y="-2.25" width="8.496145283694332" height="0.2916666666666667" fill="#fff" stroke="#1c1917" stroke-width="0.07" />
<rect x="0" y="-2.875" width="8.496145283694332" height="0.2916666666666667" fill="#fff" stroke="#1c1917" stroke-width="0.07" />
<rect x="0" y="-3.5" width="8.496145283694332" height="0.2916666666666667" fill="#fff" stroke="#1c1917" stroke-width="0.07" />
<rect x="0" y="-3.5" width="8.496145283694332" height="0.4583333333333333" fill="#fff" stroke="#1c1917" stroke-width="0.09" />
</g>
<g id="posts">
<rect x="21.533957234055332" y="-8.416666666666666" width="0.4583333333333333" height="7.916666666666666" fill="#f5f5f4" stroke="#1c1917" stroke-width="0.09" />
<rect x="14.43236037825911" y="-8.416666666666666" width="0.4583333333333333" height="7.916666666666666" fill="#f5f5f4" stroke="#1c1917" stroke-width="0.09" />
<rect x="7.101596855796221" y="-8.416666666666666" width="0.4583333333333333" height="7.916666666666666" fill="#f5f5f4" stroke="#1c1917" stroke-width="0.09" />
<rect x="0" y="-8.416666666666666" width="0.4583333333333333" height="7.916666666666666" fill="#f5f5f4" stroke="#1c1917" stroke-width="0.09" />
</g>
<g id="roof">
<rect x="0" y="-9.25" width="21.992290567388665" height="0.8333333333333334" fill="#fff" stroke="#1c1917" stroke-width="0.09" />
<rect x="-0.5" y="-9.54" width="22.992290567388665" height="0.28999999999999915" fill="#f5f5f4" stroke="#1c1917" stroke-width="0.1" />
<line x1="1" y1="-9.42" x2="1" y2="-9.37" stroke="#a8a29e" stroke-width="0.04" />
<line x1="3" y1="-9.42" x2="3" y2="-9.37" stroke="#a8a29e" stroke-width="0.04" />
<line x1="5" y1="-9.42" x2="5" y2="-9.37" stroke="#a8a29e" stroke-width="0.04" />
<line x1="7" y1="-9.42" x2="7" y2="-9.37" stroke="#a8a29e" stroke-width="0.04" />
<line x1="9" y1="-9.42" x2="9" y2="-9.37" stroke="#a8a29e" stroke-width="0.04" />
<line x1="11" y1="-9.42" x2="11" y2="-9.37" stroke="#a8a29e" stroke-width="0.04" />
<line x1="13" y1="-9.42" x2="13" y2="-9.37" stroke="#a8a29e" stroke-width="0.04" />
<line x1="15" y1="-9.42" x2="15" y2="-9.37" stroke="#a8a29e" stroke-width="0.04" />
<line x1="17" y1="-9.42" x2="17" y2="-9.37" stroke="#a8a29e" stroke-width="0.04" />
<line x1="19" y1="-9.42" x2="19" y2="-9.37" stroke="#a8a29e" stroke-width="0.04" />
<line x1="21" y1="-9.42" x2="21" y2="-9.37" stroke="#a8a29e" stroke-width="0.04" />
</g>
<g id="trees">
</g>
<g id="entry">
<line x1="8.496145283694332" y1="-0.5" x2="8.496145283694332" y2="-3.5" stroke="#1c1917" stroke-width="0.1" />
<line x1="13.496145283694332" y1="-0.5" x2="13.496145283694332" y2="-3.5" stroke="#1c1917" stroke-width="0.1" />
</g>
<g id="signage">
<rect x="19.763123900721997" y="-3.0416666666666665" width="0.4583333333333333" height="0.7083333333333334" fill="#fff" stroke="#1c1917" stroke-width="0.06" />
<rect x="1.7708333333333333" y="-3.0416666666666665" width="0.4583333333333333" height="0.7083333333333334" fill="#fff" stroke="#1c1917" stroke-width="0.06" />
</g>
<g id="labels">
<line x1="25.692290567388664" y1="-9.889999999999999" x2="20.992290567388665" y2="-9.395" stroke="#57534e" stroke-width="0.05" />
<circle cx="20.992290567388665" cy="-9.395" r="0.12" fill="#57534e" />
<text x="25.992290567388665" y="-9.54" font-size="1.0" font-family="sans-serif" fill="#1c1917">PVC CORRUGATED ROOFING — 2:12 (10%) SLOPE TO CURB</text>
<line x1="25.692290567388664" y1="-8.482" x2="21.992290567388665" y2="-3.4" stroke="#57534e" stroke-width="0.05" />
<circle cx="21.992290567388665" cy="-3.4" r="0.12" fill="#57534e" />
<text x="25.992290567388665" y="-8.132" font-size="1.0" font-family="sans-serif" fill="#1c1917">6x6 PT. WD. POST TYP.</text>
<line x1="25.692290567388664" y1="-7.073999999999999" x2="6.496145283694332" y2="-3.2708333333333335" stroke="#57534e" stroke-width="0.05" />
<circle cx="6.496145283694332" cy="-3.2708333333333335" r="0.12" fill="#57534e" />
<text x="25.992290567388665" y="-6.723999999999999" font-size="1.0" font-family="sans-serif" fill="#1c1917">2x6 PT. WD. RAILING</text>
<line x1="25.692290567388664" y1="-5.665999999999999" x2="6.496145283694332" y2="-2.1041666666666665" stroke="#57534e" stroke-width="0.05" />
<circle cx="6.496145283694332" cy="-2.1041666666666665" r="0.12" fill="#57534e" />
<text x="25.992290567388665" y="-5.315999999999999" font-size="1.0" font-family="sans-serif" fill="#1c1917">2x4 PT. WD. RAILING</text>
<line x1="25.692290567388664" y1="-4.257999999999999" x2="19.992290567388665" y2="-2.6875" stroke="#57534e" stroke-width="0.05" />
<circle cx="19.992290567388665" cy="-2.6875" r="0.12" fill="#57534e" />
<text x="25.992290567388665" y="-3.9079999999999995" font-size="1.0" font-family="sans-serif" fill="#1c1917">5.5&quot;x8.5&quot; SIGN PER §4.7 — NAME/HOURS/CAPACITY/CONTACT</text>
<line x1="25.692290567388664" y1="-2.85" x2="6.5976871702166" y2="-0.44" stroke="#57534e" stroke-width="0.05" />
<circle cx="6.5976871702166" cy="-0.44" r="0.12" fill="#57534e" />
<text x="25.992290567388665" y="-2.5" font-size="1.0" font-family="sans-serif" fill="#1c1917">COMPOSITE DECKING ON PT 2x4 SLEEPERS / ADJUSTABLE PEDESTALS</text>
</g>
<g id="dimensions">
<line x1="0" y1="0" x2="0" y2="2.5" stroke="#1c1917" stroke-width="0.06" />
<line x1="21.992290567388665" y1="0" x2="21.992290567388665" y2="2.5" stroke="#1c1917" stroke-width="0.06" />
<line x1="0" y1="2.5" x2="21.992290567388665" y2="2.5" stroke="#1c1917" stroke-width="0.08" />
<line x1="-0.4" y1="2.9" x2="0.4" y2="2.1" stroke="#1c1917" stroke-width="0.12" />
<line x1="21.592290567388666" y1="2.9" x2="22.392290567388663" y2="2.1" stroke="#1c1917" stroke-width="0.12" />
<text x="10.996145283694332" y="2.1" font-size="1.1" font-family="sans-serif" text-anchor="middle" fill="#1c1917">22&apos;-0&quot;</text>
<line x1="8.496145283694332" y1="-3.5" x2="8.496145283694332" y2="-4.7" stroke="#1c1917" stroke-width="0.06" />
<line x1="13.496145283694332" y1="-3.5" x2="13.496145283694332" y2="-4.7" stroke="#1c1917" stroke-width="0.06" />
<line x1="8.496145283694332" y1="-4.7" x2="13.496145283694332" y2="-4.7" stroke="#1c1917" stroke-width="0.08" />
<line x1="8.096145283694332" y1="-4.3" x2="8.896145283694333" y2="-5.1000000000000005" stroke="#1c1917" stroke-width="0.12" />
<line x1="13.096145283694332" y1="-4.3" x2="13.896145283694333" y2="-5.1000000000000005" stroke="#1c1917" stroke-width="0.12" />
<text x="10.996145283694332" y="-5.1000000000000005" font-size="1.1" font-family="sans-serif" text-anchor="middle" fill="#1c1917">5&apos;-0&quot; CLR ENTRY</text>
<line x1="0" y1="-3.5" x2="-3" y2="-3.5" stroke="#1c1917" stroke-width="0.06" />
<line x1="0" y1="0" x2="-3" y2="0" stroke="#1c1917" stroke-width="0.06" />
<line x1="-3" y1="-3.5" x2="-3" y2="0" stroke="#1c1917" stroke-width="0.08" />
<line x1="-3.4" y1="-3.1" x2="-2.6" y2="-3.9" stroke="#1c1917" stroke-width="0.12" />
<line x1="-3.4" y1="0.4" x2="-2.6" y2="-0.4" stroke="#1c1917" stroke-width="0.12" />
<text x="-3.4" y="-1.75" font-size="1.1" font-family="sans-serif" text-anchor="middle" fill="#1c1917" transform="rotate(-90 -3.4 -1.75)">3&apos;-6&quot;</text>
<line x1="0" y1="-9.25" x2="-6.5" y2="-9.25" stroke="#1c1917" stroke-width="0.06" />
<line x1="0" y1="0" x2="-6.5" y2="0" stroke="#1c1917" stroke-width="0.06" />
<line x1="-6.5" y1="-9.25" x2="-6.5" y2="0" stroke="#1c1917" stroke-width="0.08" />
<line x1="-6.9" y1="-8.85" x2="-6.1" y2="-9.65" stroke="#1c1917" stroke-width="0.12" />
<line x1="-6.9" y1="0.4" x2="-6.1" y2="-0.4" stroke="#1c1917" stroke-width="0.12" />
<text x="-6.9" y="-4.625" font-size="1.1" font-family="sans-serif" text-anchor="middle" fill="#1c1917" transform="rotate(-90 -6.9 -4.625)">9&apos;-3&quot;</text>
</g>
<text x="-8" y="7.5" font-size="1.15" font-family="sans-serif" font-weight="700" fill="#1c1917">NOTES</text>
<text x="-8" y="9.1" font-size="0.85" font-family="sans-serif" fill="#44403c">1. Vehicular approach assumed from the high-station end (derived from</text>
<text x="-8" y="10.25" font-size="0.85" font-family="sans-serif" fill="#44403c">side-of-street + route direction). SITE-WALK CONFIRM: verify traffic</text>
<text x="-8" y="11.4" font-size="0.85" font-family="sans-serif" fill="#44403c">direction in the adjacent lane; one-way streets can flip this.</text>
<text x="-8" y="12.8" font-size="0.85" font-family="sans-serif" fill="#44403c">2. Fire Department Connection locations are building-mounted and not in</text>
<text x="-8" y="13.950000000000001" font-size="0.85" font-family="sans-serif" fill="#44403c">any DC dataset — SITE-WALK: confirm FDC position; enclosure needs a 3 ft</text>
<text x="-8" y="15.100000000000001" font-size="0.85" font-family="sans-serif" fill="#44403c">gap at it.</text>
<g id="architect-seal">
<rect x="27.192290567388664" y="8" width="9" height="12" fill="white" stroke="#1c1917" stroke-width="0.12" />
<text x="27.892290567388663" y="9.5" font-size="0.8" font-family="sans-serif" fill="#78716c">ARCHITECT:</text>
<line x1="27.892290567388663" y1="11.1" x2="35.492290567388665" y2="11.1" stroke="#a8a29e" stroke-width="0.06" />
<circle cx="31.692290567388664" cy="15.6" r="3" fill="none" stroke="#d6d3d1" stroke-width="0.08" stroke-dasharray="0.5,0.4" />
<text x="31.692290567388664" y="15.9" font-size="0.7" font-family="sans-serif" text-anchor="middle" fill="#a8a29e">SEAL</text>
</g>
<g id="title-block">
<rect x="36.992290567388665" y="8" width="26" height="12" fill="white" stroke="#1c1917" stroke-width="0.12" />
<text x="37.992290567388665" y="9.8" font-size="1.3" font-family="sans-serif" font-weight="700" fill="#1c1917">MARTHA DEAR</text>
<text x="37.992290567388665" y="11.3" font-size="0.95" font-family="sans-serif" fill="#44403c">3110 MOUNT PLEASANT STREET NW</text>
<text x="37.992290567388665" y="13.2" font-size="1.05" font-family="sans-serif" font-weight="700" fill="#1c1917">A2.01 — ELEVATION — SIDEWALK SIDE</text>
<text x="37.992290567388665" y="14.6" font-size="0.85" font-family="sans-serif" fill="#44403c">SEATING CAPACITY: 6 (96 SF / 15)</text>
<text x="37.992290567388665" y="15.9" font-size="0.85" font-family="sans-serif" fill="#44403c">GENERATED 2026-06-11 — SCALE: 1 UNIT = 1 FT</text>
<text x="37.992290567388665" y="17.7" font-size="0.8" font-family="sans-serif" font-style="italic" fill="#a8a29e">AUTOMATED DRAFT — generated by streatery pre-screener v3.</text>
<text x="37.992290567388665" y="18.8" font-size="0.8" font-family="sans-serif" font-style="italic" fill="#a8a29e">Architect review, refinement, and seal required before submission.</text>
</g>
<g id="scale-bar" transform="translate(-8, -12.54)">
<rect x="0" y="0" width="5" height="0.5" fill="#1c1917" />
<rect x="5" y="0" width="5" height="0.5" fill="white" stroke="#1c1917" stroke-width="0.06" />
<text x="0" y="-0.4" font-size="0.8" font-family="sans-serif" fill="#1c1917">0</text>
<text x="5" y="-0.4" font-size="0.8" font-family="sans-serif" text-anchor="middle" fill="#1c1917">5</text>
<text x="10" y="-0.4" font-size="0.8" font-family="sans-serif" text-anchor="middle" fill="#1c1917">10 FT</text>
</g>
<text x="26.996145283694332" y="-5.625" font-size="3.2" font-family="sans-serif" font-weight="900" fill="#1c1917" fill-opacity="0.06" text-anchor="middle" dominant-baseline="middle" transform="rotate(-20 26.996145283694332 -5.625)">AUTOMATED DRAFT — ARCHITECT REVIEW REQUIRED</text>
</svg>
