<?xml version="1.0" encoding="UTF-8"?>
<svg xmlns="http://www.w3.org/2000/svg" viewBox="-12 -14.95 64 36.9" preserveAspectRatio="xMidYMid meet">
<rect x="-12" y="-14.95" width="64" height="36.9" fill="#fefdfb" />
<line x1="-10" y1="0" x2="6" y2="0" stroke="#1c1917" stroke-width="0.22" />
<rect x="6" y="-0.5" width="1.2" height="1.3" fill="#e7e5e4" stroke="#1c1917" stroke-width="0.12" />
<line x1="6.25" y1="-0.5" x2="6" y2="-0.25" stroke="#a8a29e" stroke-width="0.04" />
<line x1="6.55" y1="-0.5" x2="6" y2="0.050000000000000044" stroke="#a8a29e" stroke-width="0.04" />
<line x1="6.85" y1="-0.5" x2="6" y2="0.35" stroke="#a8a29e" stroke-width="0.04" />
<line x1="7.15" y1="-0.5" x2="6" y2="0.6499999999999999" stroke="#a8a29e" stroke-width="0.04" />
<line x1="7.2" y1="-0.5" x2="14" y2="-0.5" stroke="#1c1917" stroke-width="0.22" />
<text x="-10" y="1.6" font-size="1.0" font-family="sans-serif" fill="#57534e">TRAVEL LANE →</text>
<text x="7.6" y="-1.1" font-size="1.0" font-family="sans-serif" fill="#57534e">SIDEWALK</text>
<rect x="0" y="-0.5" width="6" height="0.08333333333333333" fill="#e7e5e4" stroke="#1c1917" stroke-width="0.06" />
<g id="sleepers">
<rect x="0.2" y="-0.4166666666666667" width="0.2916666666666667" height="0.125" fill="#fff" stroke="#1c1917" stroke-width="0.06" />
<line x1="0.2" y1="-0.4166666666666667" x2="0.4916666666666667" y2="-0.2916666666666667" stroke="#1c1917" stroke-width="0.03" />
<line x1="0.4916666666666667" y1="-0.4166666666666667" x2="0.2" y2="-0.2916666666666667" stroke="#1c1917" stroke-width="0.03" />
<rect x="1.5333333333333332" y="-0.4166666666666667" width="0.2916666666666667" height="0.125" fill="#fff" stroke="#1c1917" stroke-width="0.06" />
<line x1="1.5333333333333332" y1="-0.4166666666666667" x2="1.825" y2="-0.2916666666666667" stroke="#1c1917" stroke-width="0.03" />
<line x1="1.825" y1="-0.4166666666666667" x2="1.5333333333333332" y2="-0.2916666666666667" stroke="#1c1917" stroke-width="0.03" />
<rect x="2.8666666666666663" y="-0.4166666666666667" width="0.2916666666666667" height="0.125" fill="#fff" stroke="#1c1917" stroke-width="0.06" />
<line x1="2.8666666666666663" y1="-0.4166666666666667" x2="3.1583333333333328" y2="-0.2916666666666667" stroke="#1c1917" stroke-width="0.03" />
<line x1="3.1583333333333328" y1="-0.4166666666666667" x2="2.8666666666666663" y2="-0.2916666666666667" stroke="#1c1917" stroke-width="0.03" />
<rect x="4.199999999999999" y="-0.4166666666666667" width="0.2916666666666667" height="0.125" fill="#fff" stroke="#1c1917" stroke-width="0.06" />
<line x1="4.199999999999999" y1="-0.4166666666666667" x2="4.491666666666666" y2="-0.2916666666666667" stroke="#1c1917" stroke-width="0.03" />
<line x1="4.491666666666666" y1="-0.4166666666666667" x2="4.199999999999999" y2="-0.2916666666666667" stroke="#1c1917" stroke-width="0.03" />
<rect x="5.533333333333332" y="-0.4166666666666667" width="0.2916666666666667" height="0.125" fill="#fff" stroke="#1c1917" stroke-width="0.06" />
<line x1="5.533333333333332" y1="-0.4166666666666667" x2="5.824999999999999" y2="-0.2916666666666667" stroke="#1c1917" stroke-width="0.03" />
<line x1="5.824999999999999" y1="-0.4166666666666667" x2="5.533333333333332" y2="-0.2916666666666667" stroke="#1c1917" stroke-width="0.03" />
</g>
<g id="pedestals">
<rect x="0.4" y="-0.2916666666666667" width="0.3333333333333333" height="0.2916666666666667" fill="#fff" stroke="#1c1917" stroke-width="0.07" />
<line x1="0.32" y1="-0.14583333333333334" x2="0.8133333333333334" y2="-0.14583333333333334" stroke="#1c1917" stroke-width="0.05" />
<rect x="2.4" y="-0.2916666666666667" width="0.3333333333333333" height="0.2916666666666667" fill="#fff" stroke="#1c1917" stroke-width="0.07" />
<line x1="2.32" y1="-0.14583333333333334" x2="2.8133333333333335" y2="-0.14583333333333334" stroke="#1c1917" stroke-width="0.05" />
<rect x="4.4" y="-0.2916666666666667" width="0.3333333333333333" height="0.2916666666666667" fill="#fff" stroke="#1c1917" stroke-width="0.07" />
<line x1="4.32" y1="-0.14583333333333334" x2="4.8133333333333335" y2="-0.14583333333333334" stroke="#1c1917" stroke-width="0.05" />
</g>
<circle cx="5.5" cy="-0.14583333333333334" r="0.22" fill="none" stroke="#1c1917" stroke-width="0.06" />
<circle cx="5.5" cy="-0.14583333333333334" r="0.05" fill="#1c1917" />
<line x1="5.4" y1="-0.53125" x2="6.6" y2="-0.5" stroke="#1c1917" stroke-width="0.12" />
<g id="street-rails">
<rect x="0.1" y="-1.6250000000000002" width="0.125" height="0.2916666666666667" fill="#fff" stroke="#1c1917" stroke-width="0.06" />
<line x1="0.1" y1="-1.6250000000000002" x2="0.225" y2="-1.3333333333333335" stroke="#1c1917" stroke-width="0.03" />
<line x1="0.225" y1="-1.6250000000000002" x2="0.1" y2="-1.3333333333333335" stroke="#1c1917" stroke-width="0.03" />
<rect x="0.1" y="-2.25" width="0.125" height="0.2916666666666667" fill="#fff" stroke="#1c1917" stroke-width="0.06" />
<line x1="0.1" y1="-2.25" x2="0.225" y2="-1.9583333333333333" stroke="#1c1917" stroke-width="0.03" />
<line x1="0.225" y1="-2.25" x2="0.1" y2="-1.9583333333333333" stroke="#1c1917" stroke-width="0.03" />
<rect x="0.1" y="-2.875" width="0.125" height="0.2916666666666667" fill="#fff" stroke="#1c1917" stroke-width="0.06" />
<line x1="0.1" y1="-2.875" x2="0.225" y2="-2.5833333333333335" stroke="#1c1917" stroke-width="0.03" />
<line x1="0.225" y1="-2.875" x2="0.1" y2="-2.5833333333333335" stroke="#1c1917" stroke-width="0.03" />
<rect x="0.1" y="-3.5" width="0.125" height="0.2916666666666667" fill="#fff" stroke="#1c1917" stroke-width="0.06" />
<line x1="0.1" y1="-3.5" x2="0.225" y2="-3.2083333333333335" stroke="#1c1917" stroke-width="0.03" />
<line x1="0.225" y1="-3.5" x2="0.1" y2="-3.2083333333333335" stroke="#1c1917" stroke-width="0.03" />
<rect x="-0.06666666666666665" y="-3.5" width="0.4583333333333333" height="0.125" fill="#fff" stroke="#1c1917" stroke-width="0.06" />
<line x1="-0.06666666666666665" y1="-3.5" x2="0.39166666666666666" y2="-3.375" stroke="#1c1917" stroke-width="0.03" />
<line x1="0.39166666666666666" y1="-3.5" x2="-0.06666666666666665" y2="-3.375" stroke="#1c1917" stroke-width="0.03" />
</g>
<g id="sidewalk-rails">
<rect x="5.775" y="-1.6250000000000002" width="0.125" height="0.2916666666666667" fill="#fff" stroke="#1c1917" stroke-width="0.06" />
<line x1="5.775" y1="-1.6250000000000002" x2="5.9" y2="-1.3333333333333335" stroke="#1c1917" stroke-width="0.03" />
<line x1="5.9" y1="-1.6250000000000002" x2="5.775" y2="-1.3333333333333335" stroke="#1c1917" stroke-width="0.03" />
<rect x="5.775" y="-2.25" width="0.125" height="0.2916666666666667" fill="#fff" stroke="#1c1917" stroke-width="0.06" />
<line x1="5.775" y1="-2.25" x2="5.9" y2="-1.9583333333333333" stroke="#1c1917" stroke-width="0.03" />
<line x1="5.9" y1="-2.25" x2="5.775" y2="-1.9583333333333333" stroke="#1c1917" stroke-width="0.03" />
<rect x="5.775" y="-2.875" width="0.125" height="0.2916666666666667" fill="#fff" stroke="#1c1917" stroke-width="0.06" />
<line x1="5.775" y1="-2.875" x2="5.9" y2="-2.5833333333333335" stroke="#1c1917" stroke-width="0.03" />
<line x1="5.9" y1="-2.875" x2="5.775" y2="-2.5833333333333335" stroke="#1c1917" stroke-width="0.03" />
<rect x="5.775" y="-3.5" width="0.125" height="0.2916666666666667" fill="#fff" stroke="#1c1917" stroke-width="0.06" />
<line x1="5.775" y1="-3.5" x2="5.9" y2="-3.2083333333333335" stroke="#1c1917" stroke-width="0.03" />
<line x1="5.9" y1="-3.5" x2="5.775" y2="-3.2083333333333335" stroke="#1c1917" stroke-width="0.03" />
<rect x="5.608333333333333" y="-3.5" width="0.4583333333333333" height="0.125" fill="#fff" stroke="#1c1917" stroke-width="0.06" />
<line x1="5.608333333333333" y1="-3.5" x2="6.066666666666666" y2="-3.375" stroke="#1c1917" stroke-width="0.03" />
<line x1="6.066666666666666" y1="-3.5" x2="5.608333333333333" y2="-3.375" stroke="#1c1917" stroke-width="0.03" />
</g>
<g id="roof">
<rect x="0.1" y="-8.25" width="0.25" height="0.8333333333333334" fill="#fff" stroke="#1c1917" stroke-width="0.06" />
<line x1="0.1" y1="-8.25" x2="0.35" y2="-7.416666666666667" stroke="#1c1917" stroke-width="0.03" />
<line x1="0.35" y1="-8.25" x2="0.1" y2="-7.416666666666667" stroke="#1c1917" stroke-width="0.03" />
<rect x="5.65" y="-9.25" width="0.25" height="0.8333333333333334" fill="#fff" stroke="#1c1917" stroke-width="0.06" />
<line x1="5.65" y1="-9.25" x2="5.9" y2="-8.416666666666666" stroke="#1c1917" stroke-width="0.03" />
<line x1="5.9" y1="-9.25" x2="5.65" y2="-8.416666666666666" stroke="#1c1917" stroke-width="0.03" />
<polygon points="0.1,-8.25 5.9,-9.25 5.9,-8.791666666666666 0.1,-7.791666666666667" fill="#f5f5f4" stroke="#1c1917" stroke-width="0.07" />
<polygon points="-0.7,-8.25 6.7,-9.25 6.7,-9.4 -0.7,-8.4" fill="#f5f5f4" stroke="#1c1917" stroke-width="0.1" />
<rect x="0.1" y="-7.416666666666667" width="0.4583333333333333" height="6.916666666666667" fill="none" stroke="#a8a29e" stroke-width="0.06" />
<rect x="5.441666666666667" y="-8.416666666666666" width="0.4583333333333333" height="7.916666666666666" fill="none" stroke="#a8a29e" stroke-width="0.06" />
</g>
<g id="labels">
<line x1="15.7" y1="-14.1" x2="2.0999999999999996" y2="-0.4583333333333333" stroke="#57534e" stroke-width="0.05" />
<circle cx="2.0999999999999996" cy="-0.4583333333333333" r="0.12" fill="#57534e" />
<text x="16" y="-13.75" font-size="1.0" font-family="sans-serif" fill="#1c1917">COMPOSITE DECKING</text>
<line x1="15.7" y1="-12.85" x2="1.6791666666666665" y2="-0.3541666666666667" stroke="#57534e" stroke-width="0.05" />
<circle cx="1.6791666666666665" cy="-0.3541666666666667" r="0.12" fill="#57534e" />
<text x="16" y="-12.5" font-size="1.0" font-family="sans-serif" fill="#1c1917">2x4 PT. WD. SLEEPERS @ 16&quot; O.C.</text>
<line x1="15.7" y1="-11.6" x2="2.5666666666666664" y2="-0.14583333333333334" stroke="#57534e" stroke-width="0.05" />
<circle cx="2.5666666666666664" cy="-0.14583333333333334" r="0.12" fill="#57534e" />
<text x="16" y="-11.25" font-size="1.0" font-family="sans-serif" fill="#1c1917">ADJUSTABLE PEDESTALS (LEVELING, NOT BOLTED — §4.4)</text>
<line x1="15.7" y1="-10.35" x2="5.5" y2="-0.14583333333333334" stroke="#57534e" stroke-width="0.05" />
<circle cx="5.5" cy="-0.14583333333333334" r="0.12" fill="#57534e" />
<text x="16" y="-10" font-size="1.0" font-family="sans-serif" fill="#1c1917">1&apos;-0&quot; STORMWATER CHANNEL ALONG CURB — KEEP ACCESS (§4.6)</text>
<line x1="15.7" y1="-9.1" x2="6" y2="-0.55" stroke="#57534e" stroke-width="0.05" />
<circle cx="6" cy="-0.55" r="0.12" fill="#57534e" />
<text x="16" y="-8.75" font-size="1.0" font-family="sans-serif" fill="#1c1917">3/8&quot; STEEL TRANSITION PLATE, REMOVABLE, FLUSH (§4.4)</text>
<line x1="15.7" y1="-7.85" x2="3.3000000000000003" y2="-8.9" stroke="#57534e" stroke-width="0.05" />
<circle cx="3.3000000000000003" cy="-8.9" r="0.12" fill="#57534e" />
<text x="16" y="-7.5" font-size="1.0" font-family="sans-serif" fill="#1c1917">PVC CORRUGATED ROOFING — 2:12 (10%) SLOPE TO CURB</text>
<line x1="15.7" y1="-6.6" x2="0.225" y2="-7.833333333333333" stroke="#57534e" stroke-width="0.05" />
<circle cx="0.225" cy="-7.833333333333333" r="0.12" fill="#57534e" />
<text x="16" y="-6.25" font-size="1.0" font-family="sans-serif" fill="#1c1917">2x 2x10 PT. WD. BEAM TYP.</text>
<line x1="15.7" y1="-5.35" x2="4.199999999999999" y2="-8.720833333333333" stroke="#57534e" stroke-width="0.05" />
<circle cx="4.199999999999999" cy="-8.720833333333333" r="0.12" fill="#57534e" />
<text x="16" y="-5" font-size="1.0" font-family="sans-serif" fill="#1c1917">2x6 PT. WD. JOISTS @ 16&quot; O.C.</text>
<line x1="15.7" y1="-4.1" x2="5.670833333333333" y2="-4.875" stroke="#57534e" stroke-width="0.05" />
<circle cx="5.670833333333333" cy="-4.875" r="0.12" fill="#57534e" />
<text x="16" y="-3.75" font-size="1.0" font-family="sans-serif" fill="#1c1917">6x6 PT. WD. POST TYP. (BEYOND)</text>
<line x1="15.7" y1="-2.85" x2="5.8375" y2="-2.1041666666666665" stroke="#57534e" stroke-width="0.05" />
<circle cx="5.8375" cy="-2.1041666666666665" r="0.12" fill="#57534e" />
<text x="16" y="-2.5" font-size="1.0" font-family="sans-serif" fill="#1c1917">2x4 PT. WD. RAILING (CUT)</text>
</g>
<g id="dimensions">
<line x1="0" y1="0" x2="0" y2="2.9" stroke="#1c1917" stroke-width="0.06" />
<line x1="6" y1="0" x2="6" y2="2.9" stroke="#1c1917" stroke-width="0.06" />
<line x1="0" y1="2.9" x2="6" y2="2.9" stroke="#1c1917" stroke-width="0.08" />
<line x1="-0.4" y1="3.3" x2="0.4" y2="2.5" stroke="#1c1917" stroke-width="0.12" />
<line x1="5.6" y1="3.3" x2="6.4" y2="2.5" stroke="#1c1917" stroke-width="0.12" />
<text x="3" y="2.5" font-size="1.1" font-family="sans-serif" text-anchor="middle" fill="#1c1917">6&apos;-0&quot;</text>
<line x1="-2" y1="0" x2="-2" y2="4.7" stroke="#1c1917" stroke-width="0.06" />
<line x1="0" y1="0" x2="0" y2="4.7" stroke="#1c1917" stroke-width="0.06" />
<line x1="-2" y1="4.7" x2="0" y2="4.7" stroke="#1c1917" stroke-width="0.08" />
<line x1="-2.4" y1="5.1000000000000005" x2="-1.6" y2="4.3" stroke="#1c1917" stroke-width="0.12" />
<line x1="-0.4" y1="5.1000000000000005" x2="0.4" y2="4.3" stroke="#1c1917" stroke-width="0.12" />
<text x="-1" y="4.3" font-size="1.1" font-family="sans-serif" text-anchor="middle" fill="#1c1917">2&apos;-0&quot; BUFFER</text>
<line x1="0" y1="-0.5" x2="-3" y2="-0.5" stroke="#1c1917" stroke-width="0.06" />
<line x1="0" y1="0" x2="-3" y2="0" stroke="#1c1917" stroke-width="0.06" />
<line x1="-3" y1="-0.5" x2="-3" y2="0" stroke="#1c1917" stroke-width="0.08" />
<line x1="-3.4" y1="-0.09999999999999998" x2="-2.6" y2="-0.9" stroke="#1c1917" stroke-width="0.12" />
<line x1="-3.4" y1="0.4" x2="-2.6" y2="-0.4" stroke="#1c1917" stroke-width="0.12" />
<text x="-3.4" y="-0.25" font-size="1.1" font-family="sans-serif" text-anchor="middle" fill="#1c1917" transform="rotate(-90 -3.4 -0.25)">0&apos;-6&quot;</text>
<line x1="0" y1="-3.5" x2="-5.5" y2="-3.5" stroke="#1c1917" stroke-width="0.06" />
<line x1="0" y1="0" x2="-5.5" y2="0" stroke="#1c1917" stroke-width="0.06" />
<line x1="-5.5" y1="-3.5" x2="-5.5" y2="0" stroke="#1c1917" stroke-width="0.08" />
<line x1="-5.9" y1="-3.1" x2="-5.1" y2="-3.9" stroke="#1c1917" stroke-width="0.12" />
<line x1="-5.9" y1="0.4" x2="-5.1" y2="-0.4" stroke="#1c1917" stroke-width="0.12" />
<text x="-5.9" y="-1.75" font-size="1.1" font-family="sans-serif" text-anchor="middle" fill="#1c1917" transform="rotate(-90 -5.9 -1.75)">3&apos;-6&quot;</text>
<line x1="0" y1="-8.25" x2="-8" y2="-8.25" stroke="#1c1917" stroke-width="0.06" />
<line x1="0" y1="0" x2="-8" y2="0" stroke="#1c1917" stroke-width="0.06" />
<line x1="-8" y1="-8.25" x2="-8" y2="0" stroke="#1c1917" stroke-width="0.08" />
<line x1="-8.4" y1="-7.85" x2="-7.6" y2="-8.65" stroke="#1c1917" stroke-width="0.12" />
<line x1="-8.4" y1="0.4" x2="-7.6" y2="-0.4" stroke="#1c1917" stroke-width="0.12" />
<text x="-8.4" y="-4.125" font-size="1.1" font-family="sans-serif" text-anchor="middle" fill="#1c1917" transform="rotate(-90 -8.4 -4.125)">8&apos;-3&quot;</text>
</g>
<text x="-10" y="7.5" font-size="1.15" font-family="sans-serif" font-weight="700" fill="#1c1917">NOTES</text>
<text x="-10" y="9.1" font-size="0.85" font-family="sans-serif" fill="#44403c">1. Vehicular approach assumed from the</text>
<text x="-10" y="10.25" font-size="0.85" font-family="sans-serif" fill="#44403c">high-station end (derived from side-of-street +</text>
<text x="-10" y="11.4" font-size="0.85" font-family="sans-serif" fill="#44403c">route direction). SITE-WALK CONFIRM: verify</text>
<text x="-10" y="12.55" font-size="0.85" font-family="sans-serif" fill="#44403c">traffic direction in the adjacent lane; one-way</text>
<text x="-10" y="13.700000000000001" font-size="0.85" font-family="sans-serif" fill="#44403c">streets can flip this.</text>
<text x="-10" y="15.100000000000001" font-size="0.85" font-family="sans-serif" fill="#44403c">2. Fire Department Connection locations are</text>
<text x="-10" y="16.25" font-size="0.85" font-family="sans-serif" fill="#44403c">building-mounted and not in any DC dataset —</text>
<text x="-10" y="17.4" font-size="0.85" font-family="sans-serif" fill="#44403c">SITE-WALK: confirm FDC position; enclosure needs a</text>
<text x="-10" y="18.549999999999997" font-size="0.85" font-family="sans-serif" fill="#44403c">3 ft gap at it.</text>
<g id="architect-seal">
<rect x="15.2" y="8.95" width="9" height="12" fill="white" stroke="#1c1917" stroke-width="0.12" />
<text x="15.899999999999999" y="10.45" font-size="0.8" font-family="sans-serif" fill="#78716c">ARCHITECT:</text>
<line x1="15.899999999999999" y1="12.049999999999999" x2="23.5" y2="12.049999999999999" stroke="#a8a29e" stroke-width="0.06" />
<circle cx="19.7" cy="16.549999999999997" r="3" fill="none" stroke="#d6d3d1" stroke-width="0.08" stroke-dasharray="0.5,0.4" />
<text x="19.7" y="16.85" font-size="0.7" font-family="sans-serif" text-anchor="middle" fill="#a8a29e">SEAL</text>
</g>
<g id="title-block">
<rect x="25" y="8.95" width="26" height="12" fill="white" stroke="#1c1917" stroke-width="0.12" />
<text x="26" y="10.75" font-size="1.3" font-family="sans-serif" font-weight="700" fill="#1c1917">MARTHA DEAR</text>
<text x="26" y="12.25" font-size="0.95" font-family="sans-serif" fill="#44403c">3110 MOUNT PLEASANT STREET NW</text>
<text x="26" y="14.149999999999999" font-size="1.05" font-family="sans-serif" font-weight="700" fill="#1c1917">A3.00 — SECTION — TYPICAL</text>
<text x="26" y="15.549999999999999" font-size="0.85" font-family="sans-serif" fill="#44403c">SEATING CAPACITY: 6 (96 SF / 15)</text>
<text x="26" y="16.85" font-size="0.85" font-family="sans-serif" fill="#44403c">GENERATED 2026-06-11 — SCALE: 1 UNIT = 1 FT</text>
<text x="26" y="18.65" font-size="0.8" font-family="sans-serif" font-style="italic" fill="#a8a29e">AUTOMATED DRAFT — generated by streatery pre-screener v3.</text>
<text x="26" y="19.75" font-size="0.8" font-family="sans-serif" font-style="italic" fill="#a8a29e">Architect review, refinement, and seal required before submission.</text>
</g>
<g id="scale-bar" transform="translate(-10, -12.95)">
<rect x="0" y="0" width="5" height="0.5" fill="#1c1917" />
<rect x="5" y="0" width="5" height="0.5" fill="white" stroke="#1c1917" stroke-width="0.06" />
<text x="0" y="-0.4" font-size="0.8" font-family="sans-serif" fill="#1c1917">0</text>
<text x="5" y="-0.4" font-size="0.8" font-family="sans-serif" text-anchor="middle" fill="#1c1917">5</text>
<text x="10" y="-0.4" font-size="0.8" font-family="sans-serif" text-anchor="middle" fill="#1c1917">10 FT</text>
</g>
<text x="20" y="-5.5" font-size="3.2" font-family="sans-serif" font-weight="900" fill="#1c1917" fill-opacity="0.06" text-anchor="middle" dominant-baseline="middle" transform="rotate(-20 20 -5.5)">AUTOMATED DRAFT — ARCHITECT REVIEW REQUIRED</text>
</svg>
